<svg width="197" height="54" viewBox="0 0 197 54" fill="none" xmlns="http://www.w3.org/2000/svg">
<rect x="51" y="51" width="95" height="3" fill="#151412"/>
<path d="M21.528 10.8V11.26H7.038V25.06H20.47V25.52H7.038V42.54H22.54V43H3.22V10.8H21.528ZM35.484 43H31.666V11.26H23.708V10.8H43.488V11.26H35.484V43ZM49.1567 43H45.3387V10.8H49.1567V25.612H64.1068V10.8H67.9248V43H64.1068V26.072H49.1567V43ZM71.9645 43H71.3665V10.8H72.9305L92.0665 40.562V10.8H92.6645V43H89.3065L71.9645 16.32V43ZM95.6548 27.682C95.6548 22.1007 97.0042 17.8687 99.7028 14.986C102.432 12.0727 105.928 10.616 110.191 10.616C114.454 10.616 117.842 11.8733 120.357 14.388C122.902 16.9027 124.175 20.92 124.175 26.44C124.175 31.96 122.826 36.1307 120.127 38.952C117.428 41.7733 113.825 43.184 109.317 43.184C105.422 43.184 102.233 42.0647 99.7488 39.826C98.4608 38.6607 97.4488 37.0507 96.7128 34.996C96.0075 32.9107 95.6548 30.4727 95.6548 27.682ZM110.053 11.076C106.956 11.076 104.41 12.456 102.417 15.216C100.454 17.976 99.4728 22.024 99.4728 27.36C99.4728 32.696 100.408 36.5907 102.279 39.044C104.15 41.4973 106.634 42.724 109.731 42.724C112.859 42.724 115.404 41.344 117.367 38.584C119.36 35.7933 120.357 31.7607 120.357 26.486C120.357 21.1807 119.406 17.286 117.505 14.802C115.634 12.318 113.15 11.076 110.053 11.076ZM125.162 43H124.61L138.364 10.8L138.87 10.57L150.462 43H146.552L142.964 32.88H129.532L125.162 43ZM136.938 15.768L129.716 32.42H142.826L136.938 15.768ZM152.776 11.168C156.333 10.9227 159.476 10.8 162.206 10.8C169.78 10.8 173.568 13.33 173.568 18.39C173.568 20.5367 173.046 22.4533 172.004 24.14C170.961 25.8267 169.167 26.946 166.622 27.498L175.822 43H171.544L162.528 27.774H156.594V43H152.776V11.168ZM162.206 11.26C160.427 11.26 158.556 11.3673 156.594 11.582V27.314H163.402C167.726 27.13 169.888 24.186 169.888 18.482C169.888 16.1513 169.244 14.3727 167.956 13.146C166.668 11.8887 164.751 11.26 162.206 11.26ZM187.6 43H183.782V11.26H175.824V10.8H195.604V11.26H187.6V43Z" fill="#151412"/>
</svg>
